<?xml version="1.0" standalone="no"?>
<!DOCTYPE svg PUBLIC "-//W3C//DTD SVG 20010904//EN"
 "http://www.w3.org/TR/2001/REC-SVG-20010904/DTD/svg10.dtd">
<svg version="1.0" xmlns="http://www.w3.org/2000/svg"
 width="1280.000000pt" height="1280.000000pt" viewBox="0 0 1280.000000 1280.000000"
 preserveAspectRatio="xMidYMid meet">
<metadata>
Created by potrace 1.15, written by Peter Selinger 2001-2017
</metadata>
<g transform="translate(0.000000,1280.000000) scale(0.100000,-0.100000)"
fill="#000000" stroke="none">
<path d="M5720 12639 c-55 -25 -115 -81 -143 -134 -32 -60 -29 -145 10 -285
18 -63 36 -133 40 -155 15 -76 73 -48 129 65 51 101 44 226 -17 311 -27 38
-24 63 12 93 40 34 120 36 180 6 88 -45 144 -178 143 -340 -2 -188 -55 -328
-287 -748 -80 -145 -104 -182 -119 -180 -13 2 -30 29 -53 82 -19 44 -58 116
-87 160 -86 135 -118 201 -124 258 -8 68 -24 108 -45 108 -23 0 -83 -69 -114
-129 -75 -150 -74 -363 3 -505 57 -105 204 -226 275 -226 39 0 43 -21 13 -85
-25 -55 -30 -59 -73 -55 -34 2 -73 -42 -73 -85 0 -19 -5 -35 -10 -35 -16 0
-50 -62 -50 -90 0 -14 -7 -34 -15 -44 -8 -11 -15 -36 -15 -57 0 -20 -7 -53
-15 -72 -19 -45 -7 -81 34 -104 l28 -17 -5 -200 c-6 -272 15 -392 110 -634 53
-132 46 -143 -52 -89 -150 81 -221 94 -215 39 2 -15 15 -71 29 -126 35 -134
33 -167 -10 -138 -13 8 -91 129 -127 195 l-24 47 -25 -23 c-26 -24 -56 -95
-85 -198 -14 -51 -20 -59 -40 -59 -13 0 -26 8 -30 18 -35 96 -123 271 -178
352 -70 106 -202 251 -303 335 -60 49 -61 50 -55 91 7 56 -24 104 -68 104 -16
0 -29 4 -29 9 0 18 -54 61 -77 61 -14 0 -39 12 -56 26 -23 19 -38 24 -59 20
-21 -4 -34 1 -52 19 -32 32 -70 32 -98 0 -26 -30 -49 -31 -108 -4 -56 25 -64
38 -40 64 47 51 65 230 34 336 -45 154 -151 282 -290 351 -61 30 -98 41 -146
45 -83 7 -112 -6 -97 -44 5 -14 21 -39 35 -56 44 -52 64 -105 99 -255 33 -147
56 -217 83 -260 13 -20 13 -25 0 -38 -12 -13 -42 -6 -240 51 -344 99 -499 160
-623 245 -154 106 -255 279 -226 388 21 77 94 152 147 152 32 0 64 -34 64 -67
1 -79 95 -184 197 -221 83 -31 134 -37 158 -19 19 14 19 16 2 34 -9 11 -17 22
-17 25 0 3 -16 29 -35 58 -19 28 -52 84 -72 123 -69 132 -136 177 -259 177
-79 0 -146 -32 -205 -98 -187 -208 -30 -535 348 -726 98 -49 195 -87 398 -156
217 -74 205 -69 205 -90 0 -26 -22 -32 -135 -37 -115 -6 -249 -43 -266 -74 -6
-13 -21 -19 -43 -19 -40 0 -76 -35 -76 -73 0 -23 -4 -27 -28 -27 -38 0 -72
-37 -72 -78 0 -21 -7 -35 -19 -42 -31 -16 -68 -156 -75 -280 -7 -135 -11 -148
-41 -142 -16 3 -28 15 -35 36 -6 17 -40 116 -76 220 -153 444 -285 646 -492
748 -152 76 -269 63 -373 -41 -66 -66 -89 -124 -89 -220 1 -120 46 -179 205
-265 50 -27 107 -62 127 -78 23 -18 47 -28 60 -26 67 9 -20 250 -116 323 -20
16 -64 35 -98 44 -33 9 -65 23 -71 32 -30 47 55 149 138 167 123 26 289 -67
399 -222 92 -129 149 -270 247 -610 82 -285 82 -286 -29 -230 -45 23 -118 46
-219 69 -158 35 -206 54 -286 112 l-47 35 -14 -34 c-11 -25 -12 -47 -5 -91 33
-205 191 -379 394 -433 103 -28 265 -10 327 36 15 11 32 20 37 20 12 0 33 -39
51 -93 11 -35 10 -40 -14 -64 -33 -33 -35 -84 -4 -115 15 -15 21 -32 19 -54
-1 -21 6 -40 23 -61 14 -17 26 -41 26 -52 0 -12 16 -38 35 -58 19 -20 35 -44
35 -55 0 -10 10 -28 21 -39 18 -18 29 -20 69 -15 l48 6 96 -109 c154 -176 326
-301 544 -396 134 -58 137 -72 29 -105 -90 -28 -158 -62 -174 -89 -15 -25 -1
-41 61 -73 108 -55 165 -105 138 -122 -5 -3 -64 7 -133 23 l-124 27 -8 -20
c-11 -28 6 -84 55 -178 38 -73 43 -108 17 -108 -6 0 -61 20 -122 45 -62 24
-159 56 -217 72 -100 26 -117 27 -353 28 l-249 1 -16 26 c-24 40 -57 51 -92
33 -16 -8 -45 -15 -65 -15 -21 0 -49 -6 -63 -14 -15 -8 -44 -17 -64 -21 -23
-3 -45 -15 -57 -30 -13 -18 -29 -25 -53 -25 -44 0 -68 -26 -75 -80 -6 -39 -10
-44 -57 -66 -57 -26 -86 -30 -86 -11 0 21 -65 142 -99 185 -41 51 -130 114
-202 143 -40 16 -82 23 -164 27 -99 4 -118 2 -188 -22 -112 -38 -188 -90 -208
-144 -14 -35 -1 -44 77 -53 80 -10 143 -38 266 -118 81 -52 184 -106 241 -125
40 -13 8 -42 -138 -123 -343 -193 -528 -271 -698 -293 -157 -21 -306 18 -391
101 l-48 48 4 70 c3 57 8 75 28 96 30 32 55 31 109 -5 52 -36 93 -44 173 -37
67 6 169 51 211 92 44 45 19 74 -78 90 -22 4 -89 20 -149 37 -120 34 -167 33
-235 -1 -52 -27 -116 -102 -135 -158 -20 -59 -20 -157 0 -216 46 -135 219
-227 427 -227 177 0 325 45 647 200 264 126 259 124 276 109 17 -14 0 -40 -91
-144 -69 -78 -129 -187 -121 -218 3 -13 -4 -31 -20 -49 -29 -35 -31 -67 -5
-99 19 -24 19 -25 0 -48 -24 -30 -24 -62 1 -94 11 -14 20 -38 20 -54 0 -15 7
-39 15 -53 7 -14 21 -40 29 -59 9 -18 41 -60 71 -92 30 -33 68 -79 84 -103 26
-37 28 -46 16 -56 -19 -16 -30 -12 -248 96 -202 100 -324 150 -452 186 -66 19
-105 23 -220 23 -130 0 -146 -2 -220 -29 -102 -38 -182 -112 -210 -195 -26
-78 -18 -193 18 -253 29 -50 80 -98 130 -125 48 -25 145 -21 247 10 47 15 112
32 145 38 81 15 89 22 62 63 -43 67 -155 116 -260 116 -54 0 -71 -5 -121 -35
-68 -41 -95 -43 -124 -12 -29 31 -30 112 -3 166 53 104 173 157 351 155 186
-2 336 -58 695 -257 164 -91 220 -127 220 -141 0 -13 -16 -24 -63 -41 -34 -13
-100 -46 -145 -75 -157 -101 -192 -119 -262 -136 -121 -28 -120 -27 -123 -55
-2 -19 7 -35 37 -62 141 -127 397 -155 579 -63 106 54 236 206 231 271 -6 59
17 63 109 16 37 -19 42 -25 42 -57 0 -43 37 -84 76 -84 14 0 39 -11 55 -25 16
-13 46 -27 67 -31 20 -4 43 -11 51 -17 7 -6 36 -14 65 -18 28 -4 63 -11 78
-14 41 -11 71 1 91 34 l17 30 183 -6 c260 -8 416 18 644 109 137 54 142 50 79
-81 -54 -112 -68 -174 -42 -184 9 -4 54 4 99 17 45 13 99 26 120 29 35 5 38 4
35 -16 -3 -21 -41 -49 -166 -126 -70 -42 -42 -73 116 -127 81 -28 97 -37 97
-55 0 -17 -19 -29 -100 -63 -226 -97 -398 -225 -562 -418 l-76 -90 -47 7 c-41
6 -52 3 -69 -14 -12 -12 -21 -28 -21 -37 0 -9 -16 -34 -35 -55 -19 -22 -35
-49 -35 -61 0 -12 -10 -32 -22 -45 -14 -15 -22 -37 -22 -60 -1 -24 -9 -45 -23
-60 -33 -32 -31 -87 3 -118 l26 -24 -17 -52 c-10 -28 -26 -60 -37 -71 -20 -20
-20 -20 -46 5 -60 57 -233 75 -354 37 -201 -62 -365 -270 -369 -468 -2 -86 23
-97 91 -39 52 45 121 72 270 106 137 30 245 65 255 82 7 11 26 11 43 1 9 -6
-4 -65 -58 -251 -107 -367 -170 -517 -274 -643 -160 -194 -381 -247 -490 -118
-49 59 -25 130 44 130 38 0 125 47 156 83 35 41 81 138 89 188 7 41 -11 99
-30 99 -6 0 -35 -16 -65 -36 -30 -19 -85 -51 -122 -71 -87 -46 -156 -106 -179
-158 -23 -50 -25 -155 -3 -218 21 -61 84 -132 147 -164 138 -70 308 -22 465
130 134 130 230 311 332 622 62 189 90 255 110 255 26 0 31 -21 37 -140 6
-120 42 -254 74 -271 13 -6 19 -21 19 -43 0 -38 31 -72 70 -78 18 -2 26 -10
28 -28 5 -36 41 -70 73 -70 16 0 36 -9 46 -19 30 -32 131 -59 262 -71 131 -11
141 -13 141 -35 0 -20 -17 -28 -232 -101 -329 -113 -476 -188 -604 -307 -220
-204 -257 -447 -90 -594 98 -87 244 -99 346 -28 36 25 60 59 149 209 25 43 54
91 64 106 18 28 17 29 -5 50 -19 18 -30 20 -68 15 -54 -8 -137 -44 -185 -81
-46 -35 -81 -95 -96 -162 -8 -40 -17 -56 -35 -64 -36 -17 -95 5 -137 51 -44
49 -54 105 -31 181 21 71 32 93 88 166 79 106 214 195 402 268 78 30 563 176
584 176 11 0 19 -37 10 -47 -19 -19 -54 -128 -85 -265 -34 -149 -55 -202 -98
-254 -64 -77 -56 -104 28 -104 169 0 359 133 444 310 35 73 36 78 36 195 0
116 -1 123 -32 186 -18 37 -33 70 -33 73 0 10 107 56 129 56 9 0 28 -11 41
-25 28 -30 68 -32 101 -7 13 11 41 22 63 25 21 3 46 13 55 21 9 8 36 21 60 30
25 8 49 22 54 31 5 9 29 25 53 35 52 23 61 40 47 92 l-10 39 86 73 c206 175
328 339 432 581 26 61 53 110 58 109 6 -1 15 -2 20 -2 4 -1 22 -46 39 -99 54
-169 91 -203 133 -121 43 84 112 179 128 176 20 -4 18 -33 -10 -146 -32 -131
-32 -131 -7 -137 29 -7 88 13 186 65 64 33 79 38 90 26 11 -11 7 -27 -21 -97
-96 -231 -121 -374 -115 -645 l5 -200 -28 -17 c-42 -23 -55 -63 -35 -105 9
-18 16 -50 16 -70 0 -21 7 -47 15 -58 8 -10 15 -30 15 -44 0 -28 34 -90 50
-90 5 0 10 -15 10 -34 0 -59 26 -78 113 -85 13 -1 59 -111 53 -126 -3 -8 -17
-15 -31 -15 -68 0 -191 -93 -257 -194 -97 -150 -106 -372 -23 -537 39 -75 93
-131 124 -127 24 3 26 8 32 63 8 78 30 130 102 245 82 129 123 207 137 258 21
80 36 63 174 -186 204 -370 259 -521 259 -707 0 -157 -42 -262 -129 -324 -31
-22 -47 -26 -109 -26 -58 0 -77 4 -94 19 -29 26 -26 48 12 102 30 43 32 51 32
132 0 78 -4 95 -33 157 -34 72 -76 125 -98 125 -13 0 -17 -12 -54 -155 -11
-44 -27 -105 -36 -135 -31 -109 0 -209 87 -284 59 -50 125 -70 213 -64 120 8
205 68 256 182 44 97 53 155 47 285 -8 185 -52 317 -209 641 -124 256 -120
244 -104 266 13 17 17 16 72 -26 33 -24 82 -65 109 -90 57 -52 163 -110 201
-110 14 0 37 -9 51 -20 31 -24 45 -25 83 -5 26 14 33 13 65 -2 35 -17 38 -17
78 5 23 12 51 22 62 22 34 0 137 60 205 120 115 100 139 115 155 99 16 -16 -7
-75 -114 -287 -130 -260 -181 -422 -188 -602 -12 -305 125 -493 351 -478 45 3
86 13 112 26 56 29 131 114 145 165 14 51 9 85 -31 240 -18 67 -37 141 -42
165 -6 23 -16 42 -23 42 -26 0 -65 -44 -97 -108 -30 -60 -33 -75 -33 -158 0
-85 2 -94 33 -143 17 -29 32 -58 32 -66 0 -7 -14 -25 -31 -39 -25 -21 -41 -26
-85 -26 -151 0 -239 127 -238 345 0 183 59 344 255 700 66 121 127 227 135
235 19 20 34 2 62 -72 12 -32 54 -108 93 -170 92 -144 116 -197 128 -282 6
-38 16 -73 22 -77 22 -13 64 17 102 73 60 87 79 148 85 273 4 100 2 118 -22
190 -31 91 -77 167 -139 226 -52 52 -134 99 -169 99 -38 0 -41 11 -17 74 23
63 26 66 75 71 46 4 74 30 74 68 0 19 11 42 31 64 18 21 29 44 27 57 -1 12 6
35 16 50 12 19 17 40 14 65 -3 26 1 44 16 64 l20 27 -22 44 c-11 24 -30 47
-40 50 -19 6 -20 15 -14 194 7 266 -22 425 -124 665 -25 59 -31 84 -24 98 9
17 19 14 116 -36 110 -57 168 -75 186 -57 6 6 4 26 -7 58 -21 63 -53 216 -47
232 12 38 58 -13 132 -147 19 -35 43 -69 53 -75 29 -18 62 31 99 147 47 151
55 150 122 -4 96 -219 220 -391 396 -545 l109 -95 -5 -43 c-8 -53 7 -83 44
-92 15 -4 44 -22 65 -40 20 -19 47 -34 59 -34 12 0 31 -9 43 -20 12 -12 40
-24 61 -27 21 -3 51 -14 66 -24 36 -26 71 -24 106 6 17 14 36 25 43 25 18 0
119 -47 119 -55 0 -3 -9 -18 -20 -33 -54 -72 -67 -259 -26 -373 49 -139 141
-241 282 -311 68 -34 97 -42 156 -46 59 -3 76 -1 87 11 11 13 6 24 -29 72 -58
79 -75 122 -111 281 -17 77 -44 168 -60 203 -33 72 -35 89 -15 97 15 6 405
-105 551 -157 258 -91 420 -211 500 -371 64 -129 41 -249 -58 -297 -24 -12
-50 -21 -58 -21 -27 0 -59 31 -59 56 0 42 -49 131 -92 168 -77 66 -207 111
-252 87 -30 -17 -25 -34 35 -126 25 -38 61 -98 79 -133 63 -119 149 -170 273
-160 109 9 197 72 245 176 35 77 29 168 -20 272 -112 240 -291 362 -767 525
-234 80 -218 73 -224 95 -6 25 4 28 146 41 133 12 235 39 262 70 10 10 31 19
47 19 32 0 68 31 68 58 0 23 19 42 42 42 26 0 58 36 58 66 0 15 13 41 30 61
18 20 30 45 30 61 0 16 5 33 12 40 7 7 15 62 19 134 9 155 14 177 40 171 26
-7 27 -9 109 -248 153 -447 282 -640 496 -747 81 -40 93 -43 168 -43 65 0 91
5 130 24 105 52 166 148 166 263 0 55 -5 77 -33 130 -35 69 -45 77 -259 203
l-106 63 -13 -30 c-26 -63 29 -206 110 -281 45 -42 64 -51 153 -71 58 -13 60
-79 5 -136 -42 -43 -84 -60 -151 -60 -183 0 -377 186 -485 465 -42 106 -181
572 -181 605 0 33 18 32 92 -5 49 -24 118 -45 211 -65 144 -31 234 -65 277
-104 38 -36 65 -47 78 -34 18 18 14 109 -8 172 -54 158 -148 269 -286 337 -77
39 -91 42 -182 47 -115 5 -200 -14 -237 -54 -32 -35 -56 -20 -80 49 l-18 55
26 32 c33 39 34 67 2 114 -13 20 -22 42 -19 50 6 16 -17 66 -40 85 -9 7 -13
18 -10 23 9 14 -28 77 -48 84 -10 3 -18 14 -18 26 0 11 -10 33 -21 50 -21 29
-24 30 -74 23 l-52 -6 -56 69 c-90 110 -224 232 -333 305 -89 59 -249 142
-312 161 -12 4 -27 16 -32 26 -12 23 -6 27 105 64 96 31 145 60 145 83 0 18
-14 29 -133 103 -68 43 -96 73 -77 85 13 8 105 -10 193 -37 84 -26 96 -19 78
44 -7 24 -33 85 -58 136 -40 80 -44 95 -32 106 12 12 33 6 136 -36 67 -27 173
-61 235 -76 107 -25 126 -27 348 -27 l236 1 19 -31 c16 -23 29 -31 59 -33 21
-2 43 1 49 7 6 6 28 11 49 11 22 0 51 6 66 14 15 8 44 17 64 21 20 4 46 18 59
31 14 15 34 24 54 24 44 0 76 36 73 81 -3 32 0 36 51 62 30 15 65 27 78 27 19
0 23 -5 23 -33 0 -78 125 -228 234 -282 113 -55 261 -71 379 -40 102 27 247
117 247 153 0 25 -43 49 -95 55 -68 7 -143 41 -262 118 -91 58 -207 119 -229
119 -21 0 -26 34 -7 48 38 28 343 193 463 251 144 69 245 104 353 121 188 31
380 -31 435 -140 26 -51 29 -118 7 -159 -26 -52 -66 -54 -131 -8 -43 30 -51
32 -133 32 -79 0 -93 -3 -156 -35 -80 -40 -126 -93 -102 -117 7 -7 39 -18 72
-23 32 -5 99 -22 149 -37 164 -49 247 -34 334 60 55 61 72 105 72 188 0 131
-74 245 -194 299 -91 41 -169 54 -299 47 -176 -9 -296 -49 -637 -213 -186 -90
-216 -102 -229 -89 -16 16 -2 38 99 155 66 76 115 168 106 198 -5 14 1 28 19
46 14 14 25 34 25 45 0 23 -31 81 -44 81 -5 0 3 9 18 21 14 11 26 29 26 40 0
26 -28 79 -41 79 -6 0 -8 11 -4 28 4 20 -1 38 -18 63 -13 20 -27 47 -31 62 -3
15 -32 55 -64 89 -103 111 -122 139 -111 159 12 23 2 27 269 -101 332 -160
492 -210 667 -210 197 0 361 78 419 198 11 22 20 68 22 114 4 70 1 84 -26 141
-70 151 -175 201 -332 158 -41 -11 -106 -28 -145 -37 -114 -27 -126 -33 -123
-63 4 -35 71 -84 153 -111 94 -31 175 -25 245 18 28 18 62 32 76 32 34 0 64
-52 64 -109 0 -142 -141 -233 -360 -234 -183 -1 -333 51 -660 230 -247 134
-272 150 -268 169 2 9 35 28 74 43 39 15 120 60 180 99 135 88 186 111 269
121 76 9 96 22 73 48 -8 10 -18 26 -21 35 -8 23 -101 84 -168 110 -77 30 -244
37 -324 13 -93 -27 -155 -63 -221 -129 -67 -67 -114 -148 -114 -196 0 -25 -4
-30 -25 -30 -14 0 -48 11 -75 25 -41 21 -50 30 -50 52 0 14 -11 41 -26 60 -20
26 -32 33 -60 33 -25 0 -41 7 -57 26 -15 17 -36 27 -64 31 -24 3 -48 12 -54
19 -6 8 -30 14 -54 14 -23 0 -56 7 -74 16 -29 15 -34 14 -57 -1 -14 -9 -30
-27 -36 -40 l-10 -23 -192 5 c-271 8 -419 -17 -641 -107 -86 -35 -101 -38
-113 -26 -13 12 -10 21 16 68 49 86 73 156 66 193 -7 38 -7 38 -128 6 -189
-50 -183 4 11 102 28 15 53 32 56 40 10 27 -58 74 -157 107 -79 26 -96 35 -96
52 0 14 12 24 43 36 23 9 94 42 159 74 184 91 334 212 475 381 l65 78 44 -7
c51 -7 94 14 94 46 0 11 16 37 35 57 19 20 35 47 35 59 0 12 12 36 26 54 20
23 25 38 21 59 -5 22 0 34 19 51 31 30 31 67 -1 115 -28 40 -27 48 7 123 23
48 28 50 66 22 60 -43 219 -63 322 -39 190 44 369 233 400 423 7 46 6 66 -6
97 -18 44 -22 43 -100 -16 -51 -39 -128 -66 -286 -99 -65 -14 -145 -38 -179
-54 -64 -31 -89 -32 -89 -5 0 21 122 441 155 533 93 259 219 425 383 502 121
58 246 30 295 -66 31 -60 17 -87 -59 -106 -85 -23 -131 -54 -174 -121 -68
-105 -90 -249 -38 -249 11 0 41 15 67 34 25 18 66 44 91 56 105 52 176 108
204 161 26 46 28 58 24 128 -7 118 -64 214 -160 267 -47 26 -63 29 -138 29
-78 0 -91 -3 -163 -38 -94 -46 -206 -148 -272 -248 -71 -106 -149 -278 -218
-484 -90 -265 -95 -277 -120 -273 -26 4 -33 36 -39 168 -3 61 -11 106 -21 127
-10 18 -17 44 -17 58 0 16 -12 38 -29 55 -16 16 -26 31 -24 34 10 9 -7 56 -27
76 -11 11 -31 20 -44 20 -18 0 -25 7 -29 30 -9 41 -41 70 -78 70 -21 0 -37 8
-50 25 -12 14 -35 27 -57 31 -20 4 -43 11 -50 17 -7 5 -68 13 -137 18 -69 4
-130 11 -135 14 -6 3 -10 14 -10 23 0 21 3 22 255 108 210 72 405 161 499 228
157 112 267 274 274 406 10 178 -127 330 -297 330 -118 -1 -180 -47 -261 -196
-23 -43 -53 -92 -65 -109 -12 -16 -30 -45 -40 -64 -17 -33 -17 -35 1 -48 36
-27 161 6 248 66 60 42 95 95 105 161 9 55 29 80 64 80 39 0 90 -34 118 -79
76 -118 -1 -307 -178 -441 -128 -97 -278 -159 -648 -265 -253 -73 -255 -73
-211 25 15 32 42 126 61 208 34 152 62 224 110 280 57 68 30 98 -78 90 -187
-15 -391 -201 -436 -398 -25 -107 -6 -272 38 -331 19 -25 19 -28 2 -43 -18
-17 -94 -46 -119 -46 -8 0 -25 11 -38 25 -30 32 -68 32 -98 0 -18 -20 -30 -24
-53 -19 -22 4 -37 0 -60 -20 -17 -14 -41 -26 -52 -26 -12 0 -38 -16 -58 -35
-20 -19 -44 -35 -55 -35 -10 0 -28 -10 -39 -21 -18 -18 -21 -29 -16 -70 l6
-48 -89 -76 c-204 -173 -319 -336 -448 -637 -32 -75 -54 -67 -85 31 -32 97
-63 164 -86 185 -16 15 -19 13 -42 -25 -97 -161 -118 -189 -142 -189 -14 0 -1
96 23 171 40 129 6 144 -149 69 -62 -30 -114 -49 -121 -45 -15 9 -11 27 40
159 75 195 85 256 85 536 l0 244 27 15 c41 24 51 55 31 99 -9 20 -15 53 -14
72 1 23 -5 44 -17 60 -11 14 -20 37 -20 52 1 30 -25 76 -46 84 -7 3 -11 16 -8
34 6 40 -47 95 -82 86 -36 -9 -86 60 -86 119 0 21 5 25 31 25 89 0 234 126
296 256 34 70 37 86 41 185 4 96 2 118 -22 192 -29 95 -94 200 -136 222 -27
14 -28 13 -38 -13 -6 -15 -13 -49 -16 -76 -8 -65 -38 -128 -123 -259 -39 -59
-81 -135 -93 -170 -47 -133 -49 -132 -172 88 -195 350 -257 498 -279 662 -26
193 46 392 158 440 43 17 117 17 153 -2 45 -23 47 -53 8 -115 -31 -50 -33 -59
-33 -144 0 -77 4 -99 26 -146 32 -69 75 -120 100 -120 21 0 39 28 39 63 0 13
14 71 32 128 53 175 40 276 -47 364 -113 112 -296 116 -408 7 -90 -86 -132
-224 -124 -407 8 -181 58 -336 202 -625 111 -222 121 -248 103 -266 -13 -14
-20 -11 -64 22 -27 20 -71 58 -99 84 -63 61 -179 124 -213 115 -18 -4 -30 1
-47 20 -31 32 -60 32 -94 -2 l-27 -28 -23 28 c-27 32 -49 34 -85 6 -14 -11
-44 -22 -66 -23 -22 -2 -48 -10 -58 -18 -9 -9 -28 -19 -42 -23 -14 -4 -50 -30
-80 -58 -83 -75 -158 -130 -170 -122 -20 12 -9 44 85 236 111 226 155 336 191
474 22 88 25 115 21 220 -5 142 -29 227 -92 320 -32 48 -52 66 -103 92 -55 28
-74 33 -135 33 -51 0 -85 -7 -117 -21z m790 -1469 c323 -108 618 -343 730
-582 45 -96 81 -249 78 -328 l-3 -65 -35 3 c-52 4 -85 -32 -76 -85 8 -51 8
-52 0 -98 -4 -31 -2 -44 10 -54 14 -12 13 -16 -9 -43 -25 -30 -34 -82 -15 -93
18 -11 10 -22 -20 -28 -68 -14 -88 -111 -35 -167 32 -34 33 -53 2 -41 -31 12
-68 -6 -85 -41 -10 -23 -10 -33 2 -63 15 -35 15 -35 -10 -35 -14 0 -36 -12
-51 -26 -25 -25 -27 -52 -8 -97 6 -13 4 -16 -9 -11 -28 11 -65 -5 -81 -36 -19
-37 -11 -76 21 -97 13 -8 24 -21 24 -28 0 -29 -391 -525 -414 -525 -25 0 -25
13 -1 74 131 339 156 421 186 596 18 107 20 150 16 305 -6 193 -19 271 -69
423 l-30 93 20 22 c102 109 86 374 -31 495 -54 56 -65 47 -91 -70 -9 -41 -66
-51 -66 -11 0 19 -50 113 -61 113 -15 0 -46 -50 -59 -95 -20 -72 -63 -59 -76
23 -4 23 -11 45 -15 48 -5 3 -7 10 -4 15 4 5 -4 9 -18 9 -75 0 -158 -198 -143
-342 6 -60 47 -168 72 -188 10 -9 8 -25 -12 -83 -52 -149 -75 -302 -75 -487
-1 -264 47 -461 208 -860 77 -190 109 -225 160 -178 22 19 25 20 20 5 -4 -10
-7 -25 -7 -33 0 -7 -11 -21 -24 -29 -42 -28 -89 9 -101 77 -5 27 -13 39 -33
48 -25 10 -78 74 -340 409 -45 58 -85 115 -88 127 -4 15 4 30 25 52 17 17 31
37 31 45 0 29 -45 82 -72 85 -24 3 -27 6 -21 33 7 39 -37 99 -73 99 -24 0 -24
1 -8 25 16 24 16 28 -2 66 -19 43 -48 61 -83 52 -29 -7 -26 3 9 44 17 18 30
40 30 49 0 32 -42 97 -69 107 -26 9 -27 13 -17 38 8 22 6 36 -7 64 -9 19 -21
35 -26 35 -6 0 -3 13 7 29 14 25 15 35 4 64 -10 27 -10 41 -1 60 25 54 -18
121 -74 115 l-32 -3 -3 55 c-4 65 29 215 67 309 79 195 295 402 555 533 92 47
259 108 295 108 12 0 63 -13 111 -30z m-2625 -1180 c136 -22 284 -90 409 -190
61 -48 68 -67 38 -97 -35 -36 -28 -90 17 -120 19 -13 43 -37 53 -54 10 -16 32
-35 48 -41 24 -8 30 -16 30 -39 0 -33 38 -79 65 -79 15 0 15 -2 1 -22 -44 -62
5 -148 83 -148 46 0 51 -8 21 -35 -31 -28 -27 -88 6 -114 15 -12 33 -21 41
-21 12 0 12 -4 -1 -22 -9 -12 -16 -36 -16 -52 0 -32 34 -76 58 -76 12 0 10 -6
-6 -23 -25 -27 -29 -74 -8 -102 9 -12 31 -21 62 -24 l49 -6 12 -50 c15 -62 73
-567 73 -634 0 -27 7 -62 15 -77 40 -78 -15 -147 -79 -99 -19 14 -18 15 12 15
21 0 35 6 39 16 6 16 -14 121 -26 139 -4 6 -36 78 -72 160 -148 348 -279 551
-472 731 -91 84 -271 209 -358 248 -50 22 -57 28 -62 59 -17 108 -119 235
-228 287 -137 64 -244 40 -180 -41 34 -45 42 -68 31 -89 -10 -19 -12 -18 -71
10 -94 44 -118 19 -74 -77 20 -44 23 -58 13 -65 -22 -14 -42 -9 -88 22 -25 16
-48 30 -51 30 -4 0 -12 -13 -19 -30 -38 -91 70 -292 195 -365 22 -14 65 -30
95 -38 l55 -14 48 -88 c194 -357 452 -577 914 -781 158 -70 191 -92 164 -109
-16 -9 -592 58 -636 75 -18 7 -23 16 -23 40 2 71 -71 113 -119 68 -23 -22 -25
-22 -35 -4 -32 57 -82 72 -119 35 -11 -11 -22 -19 -24 -17 -1 1 -10 19 -20 38
-21 42 -32 50 -67 50 -17 0 -34 -9 -46 -25 -27 -34 -42 -31 -42 9 0 42 -37 98
-74 111 -21 7 -34 5 -58 -8 -17 -10 -31 -16 -32 -15 -1 2 -15 20 -30 41 -25
34 -33 38 -62 35 -24 -3 -34 0 -34 10 0 31 -32 73 -60 79 -19 3 -30 12 -30 22
0 26 -38 61 -66 61 -14 0 -35 -11 -48 -25 -13 -14 -30 -25 -39 -25 -39 0 -179
203 -222 323 -84 232 -45 595 97 907 50 108 78 137 183 186 249 117 550 170
770 134z m5411 -10 c142 -24 300 -76 420 -139 l89 -46 56 -112 c154 -307 192
-683 94 -928 -53 -132 -182 -315 -222 -315 -8 0 -24 11 -35 26 -29 37 -75 30
-105 -15 -13 -19 -37 -43 -54 -53 -16 -10 -35 -32 -41 -48 -8 -25 -15 -30 -43
-30 -34 0 -75 -36 -75 -66 0 -17 -8 -17 -40 1 -39 22 -69 18 -101 -14 -24 -24
-29 -38 -29 -75 0 -53 -14 -59 -50 -21 -31 33 -72 33 -99 -1 -12 -15 -21 -33
-21 -40 0 -19 -24 -18 -40 1 -7 8 -25 15 -41 15 -28 0 -40 -9 -73 -55 -15 -20
-15 -20 -36 3 -47 50 -110 15 -110 -60 0 -50 -5 -51 -216 -77 -411 -51 -454
-53 -454 -21 0 4 73 39 163 78 300 133 487 252 652 417 112 112 208 241 275
371 45 87 46 88 95 99 111 26 210 107 264 217 39 79 48 128 31 179 -15 44 -27
45 -89 3 -26 -17 -39 -21 -53 -13 -22 12 -22 7 2 62 23 52 19 93 -10 102 -11
3 -40 -5 -68 -19 -37 -19 -52 -22 -61 -13 -16 16 -14 28 14 69 33 49 32 70 -6
87 -91 40 -278 -63 -357 -198 -14 -24 -31 -67 -37 -95 l-11 -51 -99 -53 c-364
-196 -599 -486 -816 -1009 -33 -80 -53 -103 -71 -85 -14 14 59 632 77 663 4 5
23 9 43 9 75 0 103 50 64 115 l-18 29 30 16 c28 13 31 20 30 57 0 26 -8 51
-19 63 -16 17 -16 20 -2 20 28 0 64 22 75 45 8 17 6 32 -8 63 -11 23 -24 42
-29 42 -6 0 -8 6 -5 13 3 8 18 11 42 9 30 -3 45 2 70 23 35 30 41 63 17 105
-18 32 -18 40 -1 40 29 0 66 41 66 74 0 27 5 35 32 47 18 8 42 28 53 46 11 17
33 37 48 44 51 22 53 75 4 128 l-22 23 56 52 c104 94 262 174 398 201 101 20
272 18 407 -5z m-3558 -911 c43 -56 156 -211 385 -528 49 -69 121 -174 159
-235 38 -61 77 -119 88 -130 31 -32 64 -14 106 57 89 146 566 822 624 881 16
16 22 17 34 6 9 -7 16 -20 16 -30 0 -9 9 -29 20 -43 11 -14 20 -31 20 -39 0
-8 -23 -41 -51 -73 -88 -105 -149 -224 -134 -262 3 -9 0 -39 -7 -66 -12 -47
-11 -49 12 -67 l23 -18 -112 -57 c-175 -90 -321 -200 -433 -330 -88 -101 -91
-101 -188 6 -129 141 -254 235 -443 334 -93 50 -96 52 -72 63 29 13 31 31 9
73 -12 23 -13 34 -4 44 24 29 -30 147 -120 259 -65 81 -71 103 -40 131 12 11
20 31 20 52 0 54 32 44 88 -28z m-656 -259 c15 0 30 -5 33 -10 3 -6 10 -52 16
-103 12 -127 43 -222 82 -261 17 -17 38 -44 47 -61 13 -26 20 -30 51 -28 l37
2 -39 -118 c-57 -177 -72 -268 -73 -473 -1 -97 -5 -180 -9 -185 -5 -4 -90 -8
-190 -9 -193 -1 -301 -16 -447 -65 -36 -12 -83 -27 -105 -34 l-41 -13 4 32 c3
28 -1 34 -34 51 -21 11 -51 35 -67 53 -36 40 -124 68 -250 81 -49 5 -94 14
-100 20 -11 11 -35 70 -44 110 -6 24 -6 24 63 18 38 -3 157 -20 264 -37 107
-17 276 -45 375 -61 99 -16 241 -43 316 -60 151 -35 189 -34 189 5 0 13 -14
84 -30 157 -35 151 -160 919 -160 978 0 47 14 54 55 29 16 -10 42 -18 57 -18z
m2744 -40 c-7 -63 -74 -484 -112 -705 -14 -82 -36 -197 -50 -253 -27 -116 -30
-152 -12 -170 18 -18 39 -15 209 22 141 32 671 121 881 149 100 13 119 6 97
-34 -7 -13 -15 -37 -19 -54 -7 -36 -40 -55 -97 -55 -108 0 -259 -47 -282 -87
-5 -10 -27 -27 -48 -38 -34 -19 -38 -24 -37 -58 1 -20 -2 -37 -6 -37 -4 0 -38
11 -75 25 -178 67 -399 102 -582 91 -86 -5 -113 -4 -120 6 -4 7 -9 87 -9 178
-2 194 -16 281 -75 467 -40 125 -45 163 -17 135 24 -24 58 -14 73 21 8 17 28
45 44 60 39 36 67 128 80 254 9 102 20 123 61 123 15 0 38 9 51 19 37 30 53
10 45 -59z m-2156 -340 c93 -26 257 -105 330 -159 85 -64 225 -207 301 -307
38 -51 76 -94 85 -98 26 -10 49 10 132 116 131 169 282 303 422 373 81 40 205
83 264 91 40 6 47 4 71 -22 34 -36 106 -179 133 -264 44 -138 62 -334 43 -490
-6 -52 -14 -124 -18 -160 -8 -96 -5 -97 160 -76 294 36 510 9 711 -91 95 -47
156 -91 156 -112 0 -89 -101 -326 -189 -441 -63 -83 -205 -221 -304 -294 -82
-60 -102 -85 -92 -116 3 -11 48 -51 98 -89 187 -141 328 -305 408 -476 50
-107 85 -239 71 -269 -22 -48 -225 -144 -373 -177 -116 -27 -329 -31 -503 -10
-114 14 -119 14 -133 -5 -10 -13 -13 -35 -10 -69 3 -27 11 -108 18 -178 16
-157 3 -317 -36 -452 -28 -97 -101 -247 -141 -290 -23 -25 -30 -27 -70 -21
-62 8 -185 51 -269 93 -141 71 -293 200 -406 344 -100 130 -122 151 -142 144
-9 -4 -52 -53 -96 -109 -139 -180 -311 -326 -465 -396 -72 -33 -226 -80 -260
-80 -59 0 -160 186 -203 374 -21 92 -23 378 -4 493 17 104 10 150 -25 159 -14
4 -67 0 -117 -7 -114 -17 -359 -18 -452 -1 -138 25 -322 100 -395 160 l-34 29
18 74 c27 112 77 228 141 326 66 101 220 260 339 349 44 32 84 66 89 75 15 24
-21 69 -108 135 -178 133 -321 297 -395 450 -41 84 -80 210 -80 255 0 38 56
84 167 136 199 94 420 122 692 88 189 -24 180 -34 156 161 -20 164 -17 329 9
449 40 191 151 405 210 405 12 0 55 -9 96 -20z m2232 -537 c6 -7 19 -13 30
-13 17 0 18 -3 8 -15 -16 -19 -40 -19 -69 1 -18 13 -22 23 -17 45 3 16 11 36
18 43 11 12 14 9 16 -18 2 -17 8 -37 14 -43z m-5318 -579 c10 -4 16 -18 16
-39 0 -18 8 -43 19 -56 17 -21 27 -24 107 -25 49 0 97 3 107 8 13 7 28 3 53
-12 26 -17 43 -20 69 -16 31 6 36 4 50 -24 19 -36 73 -63 109 -54 13 3 34 17
47 30 31 33 45 30 45 -11 0 -46 28 -75 72 -75 20 0 44 7 54 17 17 15 18 15 18
-13 0 -59 61 -100 109 -74 19 10 21 8 21 -20 0 -67 88 -97 129 -44 16 20 26
25 45 20 39 -10 525 -392 526 -413 0 -24 -45 -13 -171 37 -317 128 -491 170
-744 177 -154 4 -198 2 -304 -16 -68 -12 -164 -35 -213 -52 l-90 -31 -22 21
c-12 11 -44 30 -71 43 -69 31 -214 31 -295 0 -68 -27 -125 -72 -138 -112 -13
-36 -7 -41 63 -55 39 -8 51 -15 53 -31 2 -17 -6 -24 -41 -38 -94 -36 -100 -80
-17 -113 38 -15 56 -28 58 -41 3 -21 2 -22 -75 -42 -38 -10 -43 -14 -43 -39 0
-57 118 -126 245 -144 86 -13 185 7 248 49 45 29 51 29 179 -9 123 -37 274
-57 424 -57 254 0 457 48 812 189 56 23 107 41 112 41 6 0 10 -9 10 -19 0 -13
-60 -68 -187 -168 -329 -261 -343 -270 -377 -218 -12 19 -25 25 -51 25 -41 0
-65 -29 -65 -78 0 -32 -1 -33 -22 -18 -12 9 -31 16 -41 16 -29 0 -67 -45 -67
-80 0 -33 -6 -36 -34 -15 -51 39 -111 2 -110 -66 1 -31 -2 -39 -16 -39 -10 0
-25 11 -34 25 -41 63 -115 51 -148 -22 -18 -42 -20 -43 -41 -28 -31 22 -55 19
-87 -13 -27 -28 -28 -28 -51 -9 -17 13 -32 17 -54 12 -38 -8 -62 -8 -100 0
-38 8 -65 -19 -74 -73 l-7 -37 -84 1 c-98 0 -218 29 -315 75 -241 113 -474
400 -581 713 -31 90 -30 117 7 223 112 323 334 610 559 723 74 37 168 67 265
84 93 17 117 18 139 10z m7825 -21 c163 -32 282 -97 415 -223 110 -106 194
-221 269 -368 58 -113 117 -268 117 -307 0 -38 -49 -175 -102 -280 -124 -250
-306 -453 -490 -546 -84 -43 -221 -79 -320 -86 -94 -6 -90 -8 -102 50 -10 45
-42 70 -79 62 -42 -8 -66 -8 -99 0 -19 5 -35 1 -56 -14 l-29 -20 -11 24 c-14
31 -58 43 -91 24 -24 -14 -26 -13 -46 26 -38 72 -93 80 -147 23 -25 -27 -28
-28 -34 -11 -18 56 -38 92 -58 100 -22 11 -59 2 -71 -16 -11 -19 -25 -12 -25
13 0 28 -50 86 -75 86 -9 0 -25 -5 -36 -10 -16 -9 -19 -7 -19 11 0 11 -9 34
-21 50 -27 39 -81 41 -105 4 -33 -50 -42 -45 -350 200 -115 92 -213 173 -218
182 -21 38 16 32 160 -25 320 -128 499 -172 730 -179 213 -8 329 8 571 79 39
11 45 10 118 -27 71 -36 82 -39 163 -39 116 0 207 30 268 88 55 53 52 81 -10
97 -22 5 -48 12 -57 15 -9 3 -19 13 -22 24 -4 16 4 22 47 36 28 9 57 21 64 27
30 24 -1 69 -64 90 -52 18 -58 50 -13 66 18 6 42 11 54 11 39 0 46 21 21 64
-37 66 -173 126 -287 126 -62 0 -161 -31 -204 -65 l-35 -26 -58 21 c-128 49
-258 71 -442 77 -279 9 -472 -29 -795 -157 -153 -61 -195 -71 -195 -47 0 14
374 317 470 382 l53 36 28 -31 c46 -50 129 -33 129 27 0 20 5 23 39 23 45 0
86 28 95 65 6 23 10 25 41 19 72 -13 117 24 96 79 -14 37 13 50 35 18 48 -68
146 -59 175 17 8 20 14 22 44 16 26 -5 44 -1 71 15 19 12 41 18 47 14 6 -3 53
-7 105 -8 83 -2 97 0 115 18 14 14 18 28 14 54 -5 28 -2 36 16 43 25 11 88 5
196 -17z m-6562 -146 c114 -100 204 -150 278 -153 28 -2 62 -6 78 -10 33 -8
60 12 54 38 -3 10 -1 18 4 18 5 0 31 -44 58 -97 97 -192 209 -341 354 -468 37
-33 67 -67 67 -77 0 -9 -21 -36 -47 -60 -159 -142 -270 -285 -360 -464 -32
-63 -64 -114 -70 -114 -7 0 -16 12 -19 26 -6 23 -10 25 -38 19 -17 -3 -53 -8
-81 -9 -80 -5 -149 -41 -266 -141 -59 -50 -95 -57 -124 -25 -10 11 -27 20 -37
20 -10 0 -21 7 -25 17 -8 20 -3 24 247 206 385 279 479 345 593 416 64 39 117
77 120 84 10 29 -33 71 -153 146 -116 74 -669 468 -767 548 -51 41 -57 73 -15
73 16 0 37 9 47 20 26 29 60 25 102 -13z m5210 13 c14 -11 34 -20 45 -20 35 0
34 -31 -4 -61 -101 -81 -651 -475 -768 -549 -184 -118 -195 -142 -96 -205 195
-124 455 -307 790 -555 110 -83 124 -108 70 -122 -17 -4 -37 -15 -44 -23 -24
-29 -59 -17 -131 44 -98 83 -179 124 -249 127 -30 1 -67 5 -81 9 -23 6 -28 3
-37 -24 -6 -17 -16 -31 -21 -31 -6 0 -36 51 -67 113 -83 166 -164 277 -291
404 -62 62 -113 119 -113 126 0 8 38 49 85 92 134 121 231 249 322 423 25 48
50 96 55 106 10 18 11 18 25 -8 13 -24 19 -27 46 -21 18 3 55 7 83 8 67 4 140
40 239 121 44 36 88 65 98 66 11 0 30 -9 44 -20z m-4753 -721 c14 -11 26 -29
26 -40 0 -25 -35 -59 -62 -59 -20 0 -20 1 -5 18 22 24 22 29 -9 69 l-25 33 24
0 c13 0 36 -9 51 -21z m4235 -7 c-24 -31 -24 -43 0 -74 l20 -24 -30 4 c-31 5
-59 35 -59 64 0 19 49 55 74 55 12 0 11 -6 -5 -25z m-3990 -1126 c194 -63 295
-79 493 -80 97 -1 180 -5 185 -9 4 -5 8 -88 9 -185 1 -200 17 -300 78 -486 19
-60 33 -113 30 -118 -3 -4 -16 -1 -30 8 -19 13 -27 14 -39 4 -8 -7 -15 -18
-15 -26 0 -7 -18 -31 -39 -52 -48 -47 -77 -133 -90 -264 -9 -92 -21 -118 -53
-118 -10 0 -33 -7 -49 -16 -17 -8 -38 -13 -46 -10 -19 8 -17 25 38 366 70 437
80 493 111 628 34 152 33 198 -8 208 -27 7 -25 7 -190 -31 -105 -24 -900 -155
-941 -155 -29 0 -45 20 -31 38 7 7 14 32 17 55 7 48 10 49 156 65 108 12 198
44 232 82 14 16 38 34 54 40 29 12 39 42 19 55 -11 7 -14 35 -3 35 3 0 54 -15
112 -34z m3808 -3 c-2 -34 2 -40 31 -54 18 -9 41 -28 52 -42 28 -36 114 -65
228 -78 138 -16 146 -19 153 -60 3 -19 10 -43 16 -55 7 -12 8 -26 3 -34 -8
-12 -26 -12 -127 2 -276 39 -750 119 -876 148 -75 17 -146 30 -159 28 -42 -6
-44 -43 -11 -195 33 -143 46 -220 113 -638 54 -336 57 -373 37 -381 -9 -3 -28
3 -43 15 -15 12 -37 21 -50 21 -31 0 -54 36 -54 83 0 52 -27 178 -49 231 -11
24 -32 54 -48 67 -16 13 -35 39 -43 57 -13 34 -21 38 -51 22 -26 -15 -25 -2
11 105 54 159 73 280 75 480 1 99 2 185 3 191 2 8 57 11 185 11 206 0 303 15
487 76 58 19 108 36 112 36 4 1 6 -16 5 -36z m-3425 -370 c24 -21 23 -62 -3
-93 -11 -14 -18 -20 -15 -14 3 6 0 26 -7 43 -8 23 -20 34 -40 38 -21 4 -25 9
-16 19 6 7 20 15 32 17 12 2 24 5 26 6 3 0 13 -6 23 -16z m3026 -9 c11 -12 10
-14 -12 -14 -41 0 -59 -27 -53 -78 l5 -45 -23 29 c-38 47 -38 101 -1 126 15
11 66 -1 84 -18z m-3228 -22 c0 -22 -34 -44 -135 -87 -141 -61 -291 -136 -374
-188 -255 -159 -444 -360 -581 -616 -43 -82 -47 -86 -86 -93 -125 -21 -253
-142 -296 -280 -20 -67 -23 -110 -8 -139 15 -26 33 -24 82 11 44 33 58 36 75
19 8 -8 5 -25 -13 -63 -28 -60 -30 -79 -8 -97 13 -10 24 -9 67 10 29 12 57 25
64 28 6 2 16 -4 22 -15 8 -15 5 -27 -14 -54 -13 -20 -27 -47 -31 -61 -9 -40
29 -55 104 -39 159 33 296 164 320 303 7 44 9 45 107 97 362 194 586 464 799
965 55 128 78 160 92 124 5 -15 -51 -524 -67 -604 -12 -61 -20 -68 -70 -64
-29 2 -40 -3 -53 -21 -22 -32 -20 -77 6 -105 18 -20 19 -23 5 -23 -48 0 -74
-81 -41 -128 13 -18 13 -22 1 -22 -8 0 -26 -9 -41 -21 -33 -26 -37 -86 -6
-114 32 -29 25 -44 -17 -38 -74 10 -128 -73 -90 -139 14 -24 14 -28 1 -28 -26
0 -64 -47 -64 -79 0 -23 -6 -31 -30 -39 -16 -6 -38 -25 -48 -41 -10 -17 -34
-41 -53 -54 -44 -29 -51 -76 -18 -120 27 -37 22 -46 -54 -107 -76 -62 -215
-134 -312 -162 -116 -33 -364 -33 -513 0 -209 47 -441 144 -483 203 -63 89
-147 348 -170 524 -14 111 -6 307 17 395 22 85 71 192 124 270 48 70 108 140
121 140 4 0 19 -11 33 -25 42 -42 103 -30 125 24 7 16 25 34 40 41 15 6 35 27
44 46 14 27 22 34 46 34 22 0 37 9 57 34 24 29 31 33 51 25 41 -15 70 -10 103
18 30 25 32 30 26 74 -8 58 11 71 43 28 37 -50 100 -38 136 26 9 15 15 16 32
6 35 -18 72 -13 99 14 26 26 49 32 59 15 10 -15 58 -12 84 6 20 15 23 23 18
59 -8 55 -2 58 204 84 348 45 469 56 469 43z m3553 -12 c264 -29 420 -51 440
-61 12 -7 17 -22 17 -49 0 -68 62 -103 116 -66 19 13 23 12 48 -15 33 -35 72
-38 110 -8 25 20 26 20 26 1 0 -11 9 -31 21 -46 28 -35 81 -36 113 -1 28 30
36 24 36 -27 0 -71 68 -116 135 -89 16 7 27 1 51 -25 23 -24 40 -34 62 -34 24
0 32 -6 40 -30 6 -16 25 -38 41 -48 17 -10 41 -34 54 -53 30 -45 72 -50 115
-14 37 31 45 28 95 -33 103 -123 176 -283 198 -432 33 -225 -28 -542 -149
-781 -43 -84 -77 -110 -230 -174 -307 -129 -657 -150 -887 -54 -85 35 -244
137 -274 176 l-22 26 24 26 c35 37 37 51 15 94 -13 27 -27 39 -48 44 -19 3
-30 12 -30 22 0 24 -37 61 -60 61 -15 0 -20 7 -20 29 0 33 -43 91 -67 91 -14
0 -14 2 0 18 22 25 21 60 -3 99 -24 40 -54 56 -91 51 -31 -5 -41 14 -15 29 7
4 18 18 25 30 16 32 -17 98 -55 107 -24 6 -25 8 -10 25 9 10 16 28 16 42 0 33
-36 89 -57 89 -14 0 -13 3 5 20 49 46 11 130 -58 130 -20 0 -42 6 -48 13 -10
11 -41 236 -75 542 -13 113 -10 155 12 155 4 0 45 -86 91 -190 155 -356 281
-546 489 -733 87 -79 236 -180 332 -228 66 -32 67 -33 73 -78 18 -134 184
-285 337 -306 38 -5 56 -3 74 9 l25 16 -35 50 c-34 48 -45 93 -26 104 5 3 36
-8 69 -25 72 -37 108 -34 97 9 -4 15 -17 48 -30 74 -21 42 -22 49 -9 62 17 18
35 13 92 -28 59 -42 78 -30 75 48 -1 42 -12 77 -39 133 -61 127 -171 218 -279
230 -41 5 -43 7 -75 75 -56 121 -167 275 -280 389 -173 174 -332 278 -628 411
-168 75 -197 92 -186 110 7 11 10 11 217 -12z m-1745 -279 c138 -139 222 -201
397 -292 109 -57 109 -58 81 -70 -25 -12 -27 -17 -22 -48 4 -20 8 -58 10 -86
3 -66 43 -145 122 -242 35 -43 64 -84 64 -92 0 -8 -7 -22 -16 -32 -9 -10 -19
-33 -23 -51 -6 -27 -12 -33 -31 -33 -21 0 -58 45 -233 285 -114 157 -264 369
-332 471 -69 102 -131 192 -140 199 -21 17 -41 7 -70 -37 -14 -21 -75 -112
-135 -203 -103 -153 -413 -586 -488 -679 -28 -35 -36 -40 -53 -31 -10 6 -19
16 -19 23 0 7 -9 23 -20 37 -30 39 -24 60 40 135 33 39 77 103 97 143 32 64
35 76 26 106 -8 25 -7 37 3 51 24 32 17 70 -13 84 -27 12 -25 14 92 74 190 99
314 193 443 336 41 44 78 81 83 81 5 0 66 -58 137 -129z m-106 -301 c14 -10
31 -34 39 -52 7 -18 34 -58 61 -88 86 -100 375 -469 394 -506 18 -33 18 -36 1
-45 -9 -6 -24 -24 -33 -41 -26 -50 9 -108 65 -108 19 0 21 -4 15 -39 -5 -34
-3 -43 19 -65 15 -14 37 -26 51 -26 25 0 25 -1 11 -35 -25 -59 9 -110 71 -108
19 1 34 -1 34 -4 0 -3 -11 -18 -25 -35 -14 -16 -28 -41 -32 -56 -9 -38 24 -94
64 -107 25 -8 30 -14 23 -25 -16 -25 -11 -66 11 -94 18 -23 19 -29 8 -61 -10
-27 -10 -43 -2 -64 6 -17 7 -35 2 -42 -5 -8 -9 -28 -9 -46 0 -40 39 -73 86
-73 l34 0 0 -64 c0 -81 -40 -240 -84 -331 -93 -196 -304 -384 -570 -511 -116
-54 -231 -94 -273 -94 -36 0 -165 45 -273 96 -262 124 -498 343 -575 533 -30
73 -52 160 -65 255 -15 101 -9 116 41 116 63 0 97 49 68 101 -7 14 -7 29 2 54
11 29 10 40 -3 68 -15 32 -15 34 8 54 28 25 30 52 9 93 -15 30 -15 30 11 30
29 0 84 49 84 75 0 21 -27 75 -53 102 -17 19 -18 23 -5 28 9 4 22 5 29 4 29
-6 66 12 77 36 10 21 9 33 -7 65 l-19 40 28 0 c15 0 40 10 55 21 27 22 30 46
10 92 -6 14 -2 17 24 17 21 0 41 9 57 25 32 32 27 53 -30 130 -6 8 2 29 24 61
54 79 379 484 389 484 24 0 16 -41 -28 -154 -112 -279 -166 -486 -179 -683
-14 -210 11 -420 72 -599 l23 -68 -28 -42 c-55 -80 -72 -200 -44 -307 30 -115
87 -197 137 -197 25 0 28 4 28 30 0 46 26 100 48 100 13 0 25 -17 43 -62 36
-94 76 -91 105 8 13 46 19 54 40 54 25 0 26 -2 42 -85 6 -33 12 -41 33 -43 19
-2 35 7 61 36 101 112 112 335 24 465 l-23 34 28 84 c55 165 64 235 63 469 0
183 -4 230 -22 315 -33 148 -65 249 -149 460 -41 105 -75 195 -76 200 -1 6 -4
12 -7 15 -3 3 -18 22 -33 43 -15 20 -32 37 -38 37 -5 0 -21 -11 -34 -25 l-25
-24 0 25 c0 24 39 74 58 74 5 0 21 -9 34 -20z"/>
<path d="M5744 7976 c-37 -16 -113 -118 -149 -199 -55 -126 -74 -262 -55 -406
16 -127 15 -128 -116 -111 -203 25 -362 -13 -523 -127 -84 -60 -96 -89 -81
-191 30 -197 138 -366 317 -494 24 -17 43 -39 43 -49 0 -10 -32 -44 -73 -77
-168 -137 -248 -266 -284 -456 -19 -101 -9 -140 46 -184 151 -122 337 -173
547 -150 140 14 140 14 124 -113 -20 -149 1 -290 61 -416 33 -69 96 -157 130
-181 51 -36 235 0 362 72 80 44 185 140 242 220 56 78 75 76 143 -14 124 -162
281 -258 470 -289 88 -14 123 -2 174 62 58 74 114 198 134 296 17 84 15 191
-5 298 -14 74 -4 78 131 65 226 -23 416 31 562 159 40 36 41 38 39 98 -4 101
-47 229 -110 331 -40 64 -137 166 -205 217 -60 43 -62 68 -11 103 69 46 182
161 224 227 50 80 83 166 98 259 11 61 10 76 -5 112 -21 53 -74 100 -173 151
-133 69 -261 91 -421 71 -133 -16 -137 -14 -120 96 13 87 7 202 -16 292 -21
84 -97 233 -148 288 l-44 49 -62 -2 c-183 -5 -388 -123 -516 -298 -41 -55 -52
-65 -78 -65 -26 0 -37 8 -66 51 -57 84 -187 199 -271 241 -121 60 -261 88
-315 64z"/>
</g>
</svg>
